<mxfile host="app.diagrams.net" modified="2023-06-05T20:07:26.060Z" agent="Mozilla/5.0 (Windows NT 10.0; Win64; x64) AppleWebKit/537.36 (KHTML, like Gecko) Chrome/114.0.0.0 Safari/537.36" etag="lmxgoEGWMWltxgEebr-8" version="21.3.2" type="device">
  <diagram name="Seite-1" id="oDMYkoMBOHMw7czSAStx">
    <mxGraphModel dx="925" dy="490" grid="1" gridSize="10" guides="1" tooltips="1" connect="1" arrows="1" fold="1" page="1" pageScale="1" pageWidth="827" pageHeight="1169" math="0" shadow="0">
      <root>
        <mxCell id="0" />
        <mxCell id="1" parent="0" />
        <mxCell id="n9flZ9XPuqo9YB13DT4E-5" style="edgeStyle=orthogonalEdgeStyle;rounded=0;orthogonalLoop=1;jettySize=auto;html=1;" edge="1" parent="1" source="n9flZ9XPuqo9YB13DT4E-2">
          <mxGeometry relative="1" as="geometry">
            <mxPoint x="290" y="80" as="targetPoint" />
          </mxGeometry>
        </mxCell>
        <mxCell id="n9flZ9XPuqo9YB13DT4E-8" style="edgeStyle=orthogonalEdgeStyle;rounded=0;orthogonalLoop=1;jettySize=auto;html=1;entryX=0;entryY=0.5;entryDx=0;entryDy=0;" edge="1" parent="1" source="n9flZ9XPuqo9YB13DT4E-2" target="n9flZ9XPuqo9YB13DT4E-7">
          <mxGeometry relative="1" as="geometry" />
        </mxCell>
        <mxCell id="n9flZ9XPuqo9YB13DT4E-16" style="edgeStyle=orthogonalEdgeStyle;rounded=0;orthogonalLoop=1;jettySize=auto;html=1;exitX=0;exitY=1;exitDx=0;exitDy=0;" edge="1" parent="1" source="n9flZ9XPuqo9YB13DT4E-2" target="n9flZ9XPuqo9YB13DT4E-12">
          <mxGeometry relative="1" as="geometry">
            <Array as="points">
              <mxPoint x="211" y="145" />
            </Array>
          </mxGeometry>
        </mxCell>
        <mxCell id="n9flZ9XPuqo9YB13DT4E-2" value="    70% Train Set" style="shape=image;verticalLabelPosition=bottom;labelBackgroundColor=default;verticalAlign=top;imageAspect=0;image=https://static.thenounproject.com/png/1630984-200.png;imageBackground=default;imageBorder=none;" vertex="1" parent="1">
          <mxGeometry x="120" y="70" width="67" height="75" as="geometry" />
        </mxCell>
        <mxCell id="n9flZ9XPuqo9YB13DT4E-23" style="edgeStyle=orthogonalEdgeStyle;rounded=0;orthogonalLoop=1;jettySize=auto;html=1;" edge="1" parent="1" source="n9flZ9XPuqo9YB13DT4E-3" target="n9flZ9XPuqo9YB13DT4E-13">
          <mxGeometry relative="1" as="geometry">
            <Array as="points">
              <mxPoint x="544" y="330" />
            </Array>
          </mxGeometry>
        </mxCell>
        <mxCell id="n9flZ9XPuqo9YB13DT4E-24" style="edgeStyle=orthogonalEdgeStyle;rounded=0;orthogonalLoop=1;jettySize=auto;html=1;" edge="1" parent="1" source="n9flZ9XPuqo9YB13DT4E-3" target="n9flZ9XPuqo9YB13DT4E-14">
          <mxGeometry relative="1" as="geometry">
            <Array as="points">
              <mxPoint x="631" y="330" />
            </Array>
          </mxGeometry>
        </mxCell>
        <mxCell id="n9flZ9XPuqo9YB13DT4E-31" style="edgeStyle=orthogonalEdgeStyle;rounded=0;orthogonalLoop=1;jettySize=auto;html=1;" edge="1" parent="1" target="n9flZ9XPuqo9YB13DT4E-12">
          <mxGeometry relative="1" as="geometry">
            <mxPoint x="200" y="330" as="sourcePoint" />
            <Array as="points">
              <mxPoint x="211" y="330" />
            </Array>
          </mxGeometry>
        </mxCell>
        <mxCell id="n9flZ9XPuqo9YB13DT4E-3" value="30% Test" style="shape=image;verticalLabelPosition=bottom;labelBackgroundColor=default;verticalAlign=top;imageAspect=0;image=https://static.thenounproject.com/png/1630984-200.png;imageBackground=default;imageBorder=none;" vertex="1" parent="1">
          <mxGeometry x="130" y="290" width="67" height="75" as="geometry" />
        </mxCell>
        <mxCell id="n9flZ9XPuqo9YB13DT4E-19" style="edgeStyle=orthogonalEdgeStyle;rounded=0;orthogonalLoop=1;jettySize=auto;html=1;exitX=0;exitY=1;exitDx=0;exitDy=0;" edge="1" parent="1" source="n9flZ9XPuqo9YB13DT4E-4" target="n9flZ9XPuqo9YB13DT4E-13">
          <mxGeometry relative="1" as="geometry">
            <Array as="points">
              <mxPoint x="544" y="188" />
            </Array>
          </mxGeometry>
        </mxCell>
        <mxCell id="n9flZ9XPuqo9YB13DT4E-4" value="     Synthetic Data" style="shape=image;verticalLabelPosition=bottom;labelBackgroundColor=default;verticalAlign=top;imageAspect=0;image=https://static.thenounproject.com/png/1630984-200.png;imageBackground=default;imageBorder=none;" vertex="1" parent="1">
          <mxGeometry x="443" y="112.5" width="67" height="75" as="geometry" />
        </mxCell>
        <mxCell id="n9flZ9XPuqo9YB13DT4E-11" style="edgeStyle=orthogonalEdgeStyle;rounded=0;orthogonalLoop=1;jettySize=auto;html=1;entryX=0;entryY=0.5;entryDx=0;entryDy=0;" edge="1" parent="1" source="n9flZ9XPuqo9YB13DT4E-6" target="n9flZ9XPuqo9YB13DT4E-10">
          <mxGeometry relative="1" as="geometry" />
        </mxCell>
        <mxCell id="n9flZ9XPuqo9YB13DT4E-6" value="SVD Synthesizer" style="rounded=1;whiteSpace=wrap;html=1;" vertex="1" parent="1">
          <mxGeometry x="290" y="50" width="120" height="60" as="geometry" />
        </mxCell>
        <mxCell id="n9flZ9XPuqo9YB13DT4E-9" value="" style="edgeStyle=orthogonalEdgeStyle;rounded=0;orthogonalLoop=1;jettySize=auto;html=1;" edge="1" parent="1" source="n9flZ9XPuqo9YB13DT4E-7" target="n9flZ9XPuqo9YB13DT4E-4">
          <mxGeometry relative="1" as="geometry" />
        </mxCell>
        <mxCell id="n9flZ9XPuqo9YB13DT4E-7" value="DataSynthesizer" style="rounded=1;whiteSpace=wrap;html=1;" vertex="1" parent="1">
          <mxGeometry x="290" y="120" width="120" height="60" as="geometry" />
        </mxCell>
        <mxCell id="n9flZ9XPuqo9YB13DT4E-20" style="edgeStyle=orthogonalEdgeStyle;rounded=0;orthogonalLoop=1;jettySize=auto;html=1;exitX=0;exitY=1;exitDx=0;exitDy=0;" edge="1" parent="1" source="n9flZ9XPuqo9YB13DT4E-10" target="n9flZ9XPuqo9YB13DT4E-14">
          <mxGeometry relative="1" as="geometry">
            <Array as="points">
              <mxPoint x="631" y="118" />
            </Array>
          </mxGeometry>
        </mxCell>
        <mxCell id="n9flZ9XPuqo9YB13DT4E-10" value="Synthetic Data" style="shape=image;verticalLabelPosition=bottom;labelBackgroundColor=default;verticalAlign=top;imageAspect=0;image=https://static.thenounproject.com/png/1630984-200.png;imageBackground=default;imageBorder=none;" vertex="1" parent="1">
          <mxGeometry x="540" y="42.5" width="67" height="75" as="geometry" />
        </mxCell>
        <mxCell id="n9flZ9XPuqo9YB13DT4E-25" style="edgeStyle=orthogonalEdgeStyle;rounded=0;orthogonalLoop=1;jettySize=auto;html=1;" edge="1" parent="1" source="n9flZ9XPuqo9YB13DT4E-12" target="n9flZ9XPuqo9YB13DT4E-26">
          <mxGeometry relative="1" as="geometry">
            <mxPoint x="300" y="263.9999999999999" as="targetPoint" />
          </mxGeometry>
        </mxCell>
        <mxCell id="n9flZ9XPuqo9YB13DT4E-12" value="Model&amp;nbsp;" style="sketch=0;outlineConnect=0;fontColor=#232F3E;gradientColor=none;fillColor=#067F68;strokeColor=none;dashed=0;verticalLabelPosition=middle;verticalAlign=middle;align=right;html=1;fontSize=12;fontStyle=0;aspect=fixed;pointerEvents=1;shape=mxgraph.aws4.sagemaker_model;labelPosition=left;" vertex="1" parent="1">
          <mxGeometry x="187" y="240" width="48" height="48" as="geometry" />
        </mxCell>
        <mxCell id="n9flZ9XPuqo9YB13DT4E-28" style="edgeStyle=orthogonalEdgeStyle;rounded=0;orthogonalLoop=1;jettySize=auto;html=1;" edge="1" parent="1" source="n9flZ9XPuqo9YB13DT4E-13" target="n9flZ9XPuqo9YB13DT4E-26">
          <mxGeometry relative="1" as="geometry">
            <mxPoint x="590" y="450" as="targetPoint" />
            <Array as="points">
              <mxPoint x="590" y="264" />
              <mxPoint x="590" y="377" />
            </Array>
          </mxGeometry>
        </mxCell>
        <mxCell id="n9flZ9XPuqo9YB13DT4E-13" value="&lt;font color=&quot;#000000&quot;&gt;Model SVD&amp;nbsp;&amp;nbsp;&lt;br&gt;&lt;/font&gt;" style="sketch=0;outlineConnect=0;fontColor=#ffffff;fillColor=#647687;strokeColor=#314354;dashed=0;verticalLabelPosition=middle;verticalAlign=middle;align=right;html=1;fontSize=12;fontStyle=0;aspect=fixed;pointerEvents=1;shape=mxgraph.aws4.sagemaker_model;labelPosition=left;" vertex="1" parent="1">
          <mxGeometry x="520" y="240" width="48" height="48" as="geometry" />
        </mxCell>
        <mxCell id="n9flZ9XPuqo9YB13DT4E-30" style="edgeStyle=orthogonalEdgeStyle;rounded=0;orthogonalLoop=1;jettySize=auto;html=1;endArrow=none;endFill=0;" edge="1" parent="1" source="n9flZ9XPuqo9YB13DT4E-14">
          <mxGeometry relative="1" as="geometry">
            <mxPoint x="590" y="263.9999999999999" as="targetPoint" />
          </mxGeometry>
        </mxCell>
        <mxCell id="n9flZ9XPuqo9YB13DT4E-14" value="&lt;font color=&quot;#000000&quot;&gt;&amp;nbsp;Model DS&lt;/font&gt;" style="sketch=0;outlineConnect=0;fontColor=#ffffff;fillColor=#647687;strokeColor=#314354;dashed=0;verticalLabelPosition=middle;verticalAlign=middle;align=left;html=1;fontSize=12;fontStyle=0;aspect=fixed;pointerEvents=1;shape=mxgraph.aws4.sagemaker_model;labelPosition=right;" vertex="1" parent="1">
          <mxGeometry x="607" y="240" width="48" height="48" as="geometry" />
        </mxCell>
        <mxCell id="n9flZ9XPuqo9YB13DT4E-26" value="Evaluation and Comparison" style="sketch=0;outlineConnect=0;fontColor=#232F3E;gradientColor=none;fillColor=#067F68;strokeColor=none;dashed=0;verticalLabelPosition=bottom;verticalAlign=top;align=center;html=1;fontSize=12;fontStyle=0;aspect=fixed;shape=mxgraph.aws4.application_discovery_service_migration_evaluator_collector;" vertex="1" parent="1">
          <mxGeometry x="300" y="350" width="53" height="53" as="geometry" />
        </mxCell>
      </root>
    </mxGraphModel>
  </diagram>
</mxfile>
